<svg class="icon icon-ubisoft-logo-desktop" xmlns="http://www.w3.org/2000/svg" aria-labelledby="logo-desktop-title" viewBox="0 0 99.2 31.6"><path class="st0" d="M30.4 15.8C30.1-.4 8.6-6.4.3 8.7c.4.3.9.7 1.2.9-.6 1.3-1.1 2.7-1.3 4-.1.9-.2 1.8-.2 2.8 0 8.4 6.8 15.2 15.2 15.2s15.2-6.8 15.2-15.2v-.6zM3.8 18.5c-.2 1.6-.1 2.2-.1 2.4l-.4.1c-.1-.3-.5-1.2-.6-2.5-.4-4.9 2.9-9.3 8-10.1 4.7-.7 9.1 2.2 10.2 6.3l-.4.1c-.1-.1-.3-.4-1-1.2C13.9 7.9 5 10.5 3.8 18.5zm14.4 2.7c-.8 1.1-2 1.8-3.4 1.8-2.3 0-4.2-1.9-4.2-4.2 0-2.2 1.7-4 3.9-4.1 1.3-.1 2.6.7 3.2 1.8.6 1.3.4 2.8-.6 3.9.4.3.8.6 1.1.8zm8.7.2c-2.2 5-6.7 7.6-11.5 7.5-9.3-.5-12-11.1-5.8-15l.3.3c-.1.1-.5.4-1 1.6-.7 1.4-.9 2.7-.8 3.6.5 7.5 10.9 9 14.5 1.6C27.1 10.8 15 .5 4.2 8.4L4 8.1C6.8 3.7 12.3 1.7 17.6 3c8.1 2.1 12.5 10.5 9.3 18.4zM45.2 9.8v7c0 2.8-1.7 4.9-4.8 4.9s-4.8-2.1-4.8-4.9v-7h2.5v6.8c0 1.7.8 2.7 2.3 2.7 1.5 0 2.3-1 2.3-2.7V9.8h2.5zm9.5 8.4c0 2-1.6 3.5-4.2 3.5h-4.1V9.9h3.9c2.3 0 3.8 1.1 3.8 2.8 0 1.3-.6 2.1-1.5 2.5 1.2.5 2.1 1.4 2.1 3zm-5.7-6v2.5h1.3c.8 0 1.3-.5 1.3-1.2s-.5-1.2-1.3-1.2l-1.3-.1zm1.4 7.2c1.1 0 1.7-.5 1.7-1.5s-.6-1.5-1.7-1.5H49v2.9l1.4.1zm5.3-9.5h2.5v11.7h-2.5V9.9zm8.6 4.8c2 .7 3 1.6 3 3.4 0 2.4-1.9 3.8-4.1 3.8-2 0-3.6-.9-4.2-2.6l2-1.5c.4 1.1 1.3 1.7 2.3 1.7.8 0 1.4-.5 1.4-1.2s-.5-1.1-2.1-1.7c-1.8-.7-3.2-1.6-3.2-3.5s1.6-3.3 3.8-3.3c1.8 0 3.2.7 3.8 2.1l-2 1.4c-.4-.9-1-1.4-1.9-1.4-.8 0-1.3.4-1.3 1 .1.7.8 1.2 2.5 1.8zM80 15.8c0 3.4-2.5 6-6 6-3.6 0-6-2.6-6-5.6 0-2 .8-3.5 1.9-4.4l-.4-.4c.9-.9 2.5-1.6 4.4-1.6 3.6-.1 6.1 2.6 6.1 6zm-2.6 0c0-2.1-1.3-3.6-3.4-3.6-1.2 0-2.1.5-2.6 1l.4.4c-.6.5-1.2 1.2-1.2 2.5 0 1.8 1.3 3.3 3.4 3.3 2.1 0 3.4-1.5 3.4-3.6zm6.2-3.4v2.7h5V17h-5v4.6H81V9.9h8v2.4h-5.4v.1zm15.6 0h-3.3v9.3h-2.5v-9.3H90V9.9h9.1v2.5z"/></svg>